<?xml version="1.0" encoding="UTF-8"?> <svg xmlns="http://www.w3.org/2000/svg" xmlns:xlink="http://www.w3.org/1999/xlink" id="Ebene_1" viewBox="0 0 920.75309 210.91728"><defs><clipPath id="clippath"><rect x=".0001" width="920.75299" height="210.91701" fill="none"></rect></clipPath></defs><g clip-path="url(#clippath)"><path d="M247.63564,128.82451V21.40752h114.77832v19.53027h-90.74072v29.74609h79.02246v19.53027h-79.02246v38.61035h-24.0376Z" fill="#fff"></path><path d="M376.53506,38.68486v-16.97656h22.08398v16.97656h-22.08398ZM376.68496,128.82451V51.45439h21.78418v77.37012h-21.78418Z" fill="#fff"></path><path d="M414.99307,128.82451V51.45439h67.45557c8.81152,0,15.24805,2.17871,19.30469,6.53516,4.05566,4.35645,6.08398,10.0918,6.08398,17.20215v53.63281h-21.7832v-51.0791c0-6.00977-3.00488-9.01465-9.01465-9.01465h-40.26221v60.09375h-21.78418Z" fill="#fff"></path><path d="M563.27188,129.57548c-13.42188,0-23.88672-3.32812-31.39844-9.99023-7.51172-6.65918-11.26758-16.4502-11.26758-29.37109,0-13.01855,3.75586-22.8584,11.26758-29.52051,7.51172-6.65918,17.97656-9.99023,31.39844-9.99023h27.79395c13.41992,0,23.88672,3.33105,31.39844,9.99023,7.51172,6.66211,11.26758,16.50195,11.26758,29.52051,0,12.9209-3.75586,22.71191-11.26758,29.37109-7.51172,6.66211-17.97852,9.99023-31.39844,9.99023h-27.79395ZM563.27188,112.29912h27.79395c6.50879,0,11.49219-1.80273,14.94727-5.4082,3.45605-3.60645,5.18359-9.16504,5.18359-16.67676,0-7.60938-1.72754-13.21973-5.18359-16.82617-3.45508-3.60547-8.43848-5.4082-14.94727-5.4082h-27.79395c-6.51172,0-11.49219,1.80273-14.94824,5.4082-3.45508,3.60645-5.18262,9.2168-5.18262,16.82617,0,7.51172,1.72754,13.07031,5.18262,16.67676,3.45605,3.60547,8.43652,5.4082,14.94824,5.4082Z" fill="#fff"></path><path d="M647.25234,128.82451V51.45439h59.19238c8.71289,0,15.12109,2.17871,19.22949,6.53516,4.10547,4.35645,6.15918,10.0918,6.15918,17.20215v16.07422h-22.08398v-13.37012c0-6.00977-3.00488-9.01465-9.01367-9.01465h-31.39941v59.94336h-22.08398Z" fill="#fff"></path><path d="M764.43301,128.82451c-8.1123,0-14.32422-2.05176-18.62891-6.15918-4.30762-4.10645-6.45996-9.96484-6.45996-17.57812,0-7.51074,2.15234-13.31836,6.45996-17.42676,4.30469-4.10547,10.5166-6.15918,18.62891-6.15918h57.68945v-3.60547c0-6.1084-3.00488-9.16504-9.01367-9.16504h-63.69922v-17.27637h69.4082c9.1123,0,15.57227,2.08008,19.37988,6.23438,3.80469,4.15723,5.70898,9.99121,5.70898,17.50293v53.63281h-79.47363ZM768.33926,111.54814h53.7832v-12.77051h-53.7832c-1.9043,0-3.38086.57812-4.43164,1.72754-1.05176,1.15332-1.57812,2.68066-1.57812,4.58203,0,1.9043.52637,3.45605,1.57812,4.65723,1.05078,1.20215,2.52734,1.80371,4.43164,1.80371Z" fill="#fff"></path><path d="M61.2349,21.66391v177.89799h11.632c23.835,0,43.158-19.32199,43.158-43.15799v-79.94901l39.213-.00099c23.836,0,43.159-19.32201,43.159-43.158v-11.632H61.2349Z" fill="#fff"></path><path d="M123.1416,199.75681h11.632c23.836,0,43.158-19.323,43.158-43.159v-11.451h-54.79v54.60999Z" fill="#fff"></path><path d="M177.6144,110.69471c0-15.005-12.164-27.169-27.16901-27.169s-27.169,12.164-27.169,27.169,12.16399,27.16901,27.169,27.16901,27.16901-12.164,27.16901-27.16901" fill="#fff"></path><path d="M27.169,145.26601c-15.005,0-27.169,12.164-27.169,27.169s12.164,27.169,27.169,27.169,27.169-12.164,27.169-27.169-12.164-27.169-27.169-27.169" fill="#fff"></path><path d="M246.04922,164.14482h2.35596v33.80957h-2.35596v-33.80957Z" fill="#fff"></path><path d="M292.6459,164.14482v33.80957h-1.95361l-27.11963-30.4375v30.4375h-2.24072v-33.80957h2.01123l27.06201,30.34277v-30.34277h2.24072Z" fill="#fff"></path><path d="M338.20889,164.14482l-17.63916,33.80957h-2.41309l-17.52441-33.80957h2.52832l16.26025,31.24512,16.20264-31.24512h2.58545Z" fill="#fff"></path><path d="M346.19473,164.14482h24.59131v1.85254h-22.17822v13.86523h21.0293v1.89941h-21.0293v14.34082h22.17822v1.85156h-24.59131v-33.80957Z" fill="#fff"></path><path d="M384.66104,197.24248c-2.39453-.72852-4.54883-1.88379-6.46387-3.4668l1.20654-1.66211c2.02979,1.55176,4.07959,2.65234,6.14795,3.30078s4.57666.97266,7.52686.97266c3.63867,0,6.46387-.64062,8.47461-1.92285,2.01123-1.28223,3.0166-3.07812,3.0166-5.38965,0-1.3291-.49805-2.41309-1.49365-3.25293-.99658-.83789-2.23193-1.47168-3.70605-1.89941-1.4751-.42676-3.43848-.87793-5.88965-1.35254-3.25586-.63281-5.79395-1.21875-7.61279-1.75684-1.81982-.53809-3.43848-1.4248-4.85498-2.65918-1.41748-1.23535-2.12598-2.91211-2.12598-5.03418,0-1.86719.57471-3.50488,1.72363-4.91406,1.14941-1.4082,2.78662-2.50098,4.9126-3.27637s4.62549-1.16406,7.49805-1.16406c5.66846,0,10.24609,1.51953,13.73242,4.55859l-1.20703,1.66211c-1.95312-1.4873-3.92676-2.57129-5.91797-3.25293-1.99219-.67969-4.19434-1.02051-6.60742-1.02051-3.67725,0-6.54102.65723-8.58984,1.9707-2.04932,1.31348-3.07373,3.15723-3.07373,5.53223,0,2.02637.89062,3.53027,2.67188,4.51074,1.78076.98145,4.28027,1.80469,7.49805,2.46875l2.58545.52246c2.79541.53906,5.05615,1.06836,6.77979,1.59082s3.18896,1.33789,4.39551,2.44531c1.20654,1.1084,1.81006,2.59668,1.81006,4.46387,0,1.77344-.57471,3.34766-1.72412,4.72461-1.14893,1.37695-2.78662,2.4541-4.91211,3.22949-2.12598.77539-4.58789,1.16309-7.3833,1.16309-3.21777,0-6.02393-.36426-8.41748-1.0918Z" fill="#fff"></path><path d="M426.5751,165.94951h-15.05371v-1.80469h32.521v1.80469h-15.11182v32.00488h-2.35547v-32.00488Z" fill="#fff"></path><path d="M489.6625,164.14482v33.80957h-2.35547l.05664-28.96582-15.45508,28.96582h-1.9541l-15.57031-28.72852.05762,28.72852h-2.35645v-33.80957h2.06836l16.77734,31.48242,16.66309-31.48242h2.06836Z" fill="#fff"></path><path d="M502.58926,164.14482h24.5918v1.85254h-22.17871v13.86523h21.0293v1.89941h-21.0293v14.34082h22.17871v1.85156h-24.5918v-33.80957Z" fill="#fff"></path><path d="M569.12344,164.14482v33.80957h-1.95312l-27.12012-30.4375v30.4375h-2.24023v-33.80957h2.01074l27.0625,30.34277v-30.34277h2.24023Z" fill="#fff"></path><path d="M592.22109,165.94951h-15.05371v-1.80469h32.52051v1.80469h-15.11133v32.00488h-2.35547v-32.00488Z" fill="#fff"></path><path d="M637.75527,197.24248c-2.39453-.72852-4.54883-1.88379-6.46387-3.4668l1.20703-1.66211c2.0293,1.55176,4.0791,2.65234,6.14746,3.30078,2.06934.64844,4.57715.97266,7.52734.97266,3.63867,0,6.46387-.64062,8.47461-1.92285s3.0166-3.07812,3.0166-5.38965c0-1.3291-.49805-2.41309-1.49414-3.25293-.99609-.83789-2.23145-1.47168-3.70605-1.89941-1.47461-.42676-3.43848-.87793-5.88867-1.35254-3.25684-.63281-5.79395-1.21875-7.61328-1.75684-1.82031-.53809-3.43848-1.4248-4.85547-2.65918-1.41699-1.23535-2.12598-2.91211-2.12598-5.03418,0-1.86719.5752-3.50488,1.72363-4.91406,1.14941-1.4082,2.78711-2.50098,4.91309-3.27637s4.625-1.16406,7.49805-1.16406c5.66895,0,10.24609,1.51953,13.73242,4.55859l-1.20703,1.66211c-1.95312-1.4873-3.92676-2.57129-5.91797-3.25293-1.99219-.67969-4.19434-1.02051-6.60742-1.02051-3.67676,0-6.54102.65723-8.58984,1.9707-2.0498,1.31348-3.07422,3.15723-3.07422,5.53223,0,2.02637.89062,3.53027,2.67188,4.51074,1.78125.98145,4.28125,1.80469,7.49805,2.46875l2.58594.52246c2.7959.53906,5.05566,1.06836,6.78027,1.59082,1.72363.52246,3.18848,1.33789,4.39453,2.44531,1.20703,1.1084,1.81055,2.59668,1.81055,4.46387,0,1.77344-.5752,3.34766-1.72363,4.72461-1.14941,1.37695-2.78711,2.4541-4.91309,3.22949s-4.58691,1.16309-7.38281,1.16309c-3.21777,0-6.02441-.36426-8.41797-1.0918Z" fill="#fff"></path><path d="M679.66934,165.94951h-15.05371v-1.80469h32.52051v1.80469h-15.11133v32.00488h-2.35547v-32.00488Z" fill="#fff"></path><path d="M708.7709,194.98662c-2.62402-2.23145-3.93555-5.51562-3.93555-9.85352v-20.98828h2.35547v21.32129c0,7.28125,4.38574,10.9209,13.1582,10.9209,4.28906,0,7.53516-.91699,9.73828-2.75391,2.20215-1.83496,3.30371-4.55859,3.30371-8.16699v-21.32129h2.41309v20.98828c0,4.33789-1.3125,7.62207-3.93555,9.85352-2.62402,2.23145-6.46387,3.34766-11.51953,3.34766-5.0957,0-8.95508-1.11621-11.57812-3.34766Z" fill="#fff"></path><path d="M748.38711,164.14482h12.58301c6.43555,0,11.38574,1.45703,14.85254,4.36914,3.4668,2.91309,5.2002,7.0752,5.2002,12.48828s-1.74414,9.5918-5.22852,12.53613c-3.48633,2.94434-8.42773,4.41602-14.82422,4.41602h-12.58301v-33.80957ZM760.9125,196.1497c5.7832,0,10.1416-1.27344,13.07129-3.82227,2.93066-2.54785,4.39551-6.32324,4.39551-11.3252,0-5.00098-1.46484-8.76074-4.39551-11.27734-2.92969-2.5166-7.28809-3.77539-13.07129-3.77539h-10.16992v30.2002h10.16992Z" fill="#fff"></path><path d="M792.28262,164.14482h2.35547v33.80957h-2.35547v-33.80957Z" fill="#fff"></path><path d="M814.25918,196.24541c-2.7002-1.39355-4.76855-3.3877-6.20508-5.9834s-2.1543-5.66602-2.1543-9.21191c0-3.54492.71777-6.61621,2.1543-9.21191s3.49512-4.58984,6.17676-5.9834c2.68066-1.39258,5.86035-2.08984,9.53809-2.08984,3.67676,0,6.86621.69727,9.56641,2.08984,2.7002,1.39355,4.76855,3.37988,6.20508,5.95898,1.43652,2.58105,2.1543,5.64355,2.1543,9.18848,0,3.5459-.71777,6.62402-2.1543,9.23633-1.43652,2.61133-3.50488,4.61328-6.20508,6.00684-2.7002,1.39258-5.88965,2.08887-9.56641,2.08887-3.63965,0-6.80859-.69629-9.50977-2.08887ZM835.03066,192.35087c2.68066-2.69043,4.02148-6.47363,4.02148-11.34863s-1.33105-8.64258-3.99316-11.30176c-2.66309-2.65918-6.42578-3.98828-11.29004-3.98828-4.86523,0-8.62891,1.33789-11.29004,4.0127-2.66309,2.6748-3.99414,6.43359-3.99414,11.27734s1.34082,8.61816,4.02246,11.3252c2.68066,2.70703,6.43555,4.05957,11.26172,4.05957s8.58008-1.34473,11.26172-4.03613Z" fill="#fff"></path></g></svg> 