<?xml version="1.0" encoding="UTF-8"?> <svg xmlns="http://www.w3.org/2000/svg" id="Ebene_1" viewBox="0 0 512 512"><g opacity=".8"><path d="M463.65135,376.61202c.09471-.40365.18921-.8073.27856-1.21158.13182-.58908.25628-1.17984.37695-1.77143.01261-.06223.02586-.12414.03826-.18627,4.48577-22.20432,1.212-46.07076-11.00493-67.23116-26.61189-46.09294-85.55088-61.88543-131.6435-35.27365-19.68119,11.36275-33.83238,28.62173-41.52255,48.25562-.17124.43172-.33743.86427-.50204,1.29736-.0328.08756-.06612.17502-.09871.26269-16.32806,43.35379.61378,93.39703,42.04824,117.31939,46.09273,26.61146,105.03182,10.81908,131.6436-35.27417,4.71062-8.15909,8.08614-16.72141,10.20656-25.43499.06139-.25018.12004-.5012.17954-.7518Z" fill="#135d5f"></path><circle cx="142.12355" cy="354.39655" r="96.36998" transform="translate(-208.96918 204.29687) rotate(-45)" fill="#135d5f"></circle><circle cx="255.92753" cy="157.36977" r="96.36977" transform="translate(55.41904 381.1118) rotate(-79.72195)" fill="#135d5f"></circle></g><circle cx="256" cy="283.30303" r="167.42057" fill="#77b0aa" opacity=".4"></circle></svg> 