<?xml version="1.0" encoding="UTF-8"?>
<svg id="Ebene_1" data-name="Ebene 1" xmlns="http://www.w3.org/2000/svg" viewBox="0 0 972.02 176.02">
  <defs>
    <style>
      .cls-1 {
        fill: #fff;
      }
    </style>
  </defs>
  <path class="cls-1" d="M0,174.79V-.49h187.29v31.87H39.22v48.54h128.95v31.87H39.22v63H0Z"/>
  <path class="cls-1" d="M210.34,27.7V0h36.04v27.7h-36.04ZM210.58,174.79V48.54h35.55v126.25h-35.55Z"/>
  <path class="cls-1" d="M273.09,174.79V48.54h110.07c14.38,0,24.88,3.55,31.5,10.66,6.62,7.11,9.93,16.47,9.93,28.07v87.52h-35.55v-83.35c0-9.81-4.9-14.71-14.71-14.71h-65.7v98.06h-35.55Z"/>
  <path class="cls-1" d="M515.05,176.02c-21.9,0-38.98-5.43-51.24-16.3-12.26-10.87-18.39-26.84-18.39-47.93s6.13-37.3,18.39-48.17c12.26-10.87,29.33-16.3,51.24-16.3h45.35c21.9,0,38.98,5.43,51.24,16.3,12.26,10.87,18.39,26.93,18.39,48.17s-6.13,37.06-18.39,47.93c-12.26,10.87-29.34,16.3-51.24,16.3h-45.35ZM515.05,147.82h45.35c10.62,0,18.75-2.94,24.39-8.83,5.64-5.88,8.46-14.95,8.46-27.21s-2.82-21.57-8.46-27.46c-5.64-5.88-13.77-8.83-24.39-8.83h-45.35c-10.63,0-18.75,2.94-24.39,8.83-5.64,5.88-8.46,15.04-8.46,27.46s2.82,21.33,8.46,27.21c5.64,5.88,13.77,8.83,24.39,8.83Z"/>
  <path class="cls-1" d="M652.09,174.79V48.54h96.59c14.22,0,24.67,3.55,31.38,10.66,6.7,7.11,10.05,16.47,10.05,28.07v26.23h-36.04v-21.82c0-9.81-4.9-14.71-14.71-14.71h-51.24v97.81h-36.04Z"/>
  <path class="cls-1" d="M843.3,174.79c-13.24,0-23.37-3.35-30.4-10.05-7.03-6.7-10.54-16.26-10.54-28.68s3.51-21.73,10.54-28.44c7.02-6.7,17.16-10.05,30.4-10.05h94.14v-5.88c0-9.97-4.9-14.95-14.71-14.95h-103.94v-28.19h113.26c14.87,0,25.41,3.39,31.62,10.17,6.21,6.78,9.32,16.3,9.32,28.56v87.52h-129.68ZM849.68,146.6h87.76v-20.84h-87.76c-3.11,0-5.52.94-7.23,2.82-1.72,1.88-2.58,4.37-2.58,7.48s.86,5.64,2.58,7.6c1.71,1.96,4.12,2.94,7.23,2.94Z"/>
</svg>