<svg xmlns="http://www.w3.org/2000/svg" viewBox="0 0 1600 1200" preserveAspectRatio="none">
  <defs>
    <linearGradient id="bg" x1="0%" y1="0%" x2="100%" y2="100%">
      <stop offset="0%" stop-color="#032d35"/>
      <stop offset="52%" stop-color="#0b4650"/>
      <stop offset="100%" stop-color="#19393b"/>
    </linearGradient>
    <radialGradient id="glowA" cx="18%" cy="24%" r="44%">
      <stop offset="0%" stop-color="#c4e5df" stop-opacity="0.64"/>
      <stop offset="36%" stop-color="#8eb7b3" stop-opacity="0.28"/>
      <stop offset="100%" stop-color="#8eb7b3" stop-opacity="0"/>
    </radialGradient>
    <radialGradient id="glowB" cx="82%" cy="16%" r="38%">
      <stop offset="0%" stop-color="#8fd2da" stop-opacity="0.38"/>
      <stop offset="40%" stop-color="#3f7e86" stop-opacity="0.18"/>
      <stop offset="100%" stop-color="#3f7e86" stop-opacity="0"/>
    </radialGradient>
    <radialGradient id="glowC" cx="76%" cy="82%" r="42%">
      <stop offset="0%" stop-color="#c2d6d3" stop-opacity="0.24"/>
      <stop offset="48%" stop-color="#90b4b2" stop-opacity="0.1"/>
      <stop offset="100%" stop-color="#90b4b2" stop-opacity="0"/>
    </radialGradient>
  </defs>
  <rect width="1600" height="1200" fill="url(#bg)"/>
  <rect width="1600" height="1200" fill="url(#glowA)"/>
  <rect width="1600" height="1200" fill="url(#glowB)"/>
  <rect width="1600" height="1200" fill="url(#glowC)"/>
  <g fill="#ffffff" opacity="0.06">
    <circle cx="240" cy="1040" r="220"/>
    <circle cx="1420" cy="930" r="170"/>
    <circle cx="1220" cy="240" r="120"/>
  </g>
  <g fill="#d6f2ed" opacity="0.06">
    <path d="M0 838c175-108 324-134 446-80 130 56 228 86 332 52 108-34 200-124 362-118 146 5 274 80 460 204V1200H0Z"/>
    <path d="M0 314c162-104 322-118 448-54 146 74 236 102 356 84 104-14 216-64 366-40 160 26 294 100 430 210V0H0Z"/>
  </g>
</svg>
